<?xml version="1.0" encoding="UTF-8" standalone="no"?>
<svg
   xmlns:dc="http://purl.org/dc/elements/1.1/"
   xmlns:cc="http://creativecommons.org/ns#"
   xmlns:rdf="http://www.w3.org/1999/02/22-rdf-syntax-ns#"
   xmlns:svg="http://www.w3.org/2000/svg"
   xmlns="http://www.w3.org/2000/svg"
   xmlns:xlink="http://www.w3.org/1999/xlink"
   viewBox="0 0 378.07999 378.07999"
   height="378.07999"
   width="378.07999"
   xml:space="preserve"
   id="svg4119"
   version="1.1"><metadata
     id="metadata4125"><rdf:RDF><cc:Work
         rdf:about=""><dc:format>image/svg+xml</dc:format><dc:type
           rdf:resource="http://purl.org/dc/dcmitype/StillImage" /><dc:title></dc:title></cc:Work></rdf:RDF></metadata><defs
     id="defs4123"><clipPath
       id="clipPath4135"
       clipPathUnits="userSpaceOnUse"><path
         style="clip-rule:evenodd"
         id="path4133"
         d="M 0,6.1035e-5 H 283.56 V 283.56006 H 0 Z" /></clipPath><clipPath
       id="clipPath4145"
       clipPathUnits="userSpaceOnUse"><path
         style="clip-rule:evenodd"
         id="path4143"
         d="m 60.041,265.98 c -22.589,0 -40.901,-18.31 -40.901,-40.9 V 61.481 C 19.14,38.892 37.452,20.58 60.041,20.58 H 223.64 c 22.59,0 40.9,18.312 40.9,40.901 V 225.08 c 0,22.59 -18.31,40.9 -40.9,40.9 z M 8.451e-6,283.56 H 283.56 V 1.2207e-4 H 8.451e-6 Z" /></clipPath><mask
       id="mask4149"
       height="1"
       width="1"
       y="0"
       x="0"
       maskUnits="userSpaceOnUse"><image
         xlink:href="all_img8.png"
         width="1"
         height="1"
         style="image-rendering:optimizeSpeed"
         preserveAspectRatio="none"
         id="image4151" /></mask><clipPath
       id="clipPath4165"
       clipPathUnits="userSpaceOnUse"><path
         style="clip-rule:evenodd"
         id="path4163"
         d="M -7.72e-7,283.56 H 283.56 V 9.1553e-5 L -4.424e-6,6.1035e-5" /></clipPath><clipPath
       id="clipPath4175"
       clipPathUnits="userSpaceOnUse"><path
         style="clip-rule:evenodd"
         id="path4173"
         d="M -1.6574e-5,283.56 H 283.56 V -3.0518e-5 L -8.568e-6,0" /></clipPath></defs><g
     transform="matrix(1.3333333,0,0,-1.3333333,0,378.08)"
     id="g4127"><g
       id="g4129"><g
         clip-path="url(#clipPath4135)"
         id="g4131"><path
           id="path4137"
           style="fill:#eaeced;fill-opacity:1;fill-rule:evenodd;stroke:none"
           d="M 0,3.0518e-5 H 283.56 V 283.56003 H 0 Z" /></g></g><g
       id="g4139"><g
         clip-path="url(#clipPath4145)"
         id="g4141"><g
           transform="matrix(262.68,0,0,262.68,12.48,9.9604)"
           id="g4147"><image
             xlink:href="all_img9.png"
             width="1"
             height="1"
             style="image-rendering:optimizeSpeed"
             preserveAspectRatio="none"
             transform="matrix(1,0,0,-1,0,1)"
             mask="url(#mask4149)"
             id="image4153" /></g></g></g><path
       id="path4155"
       style="fill:#ffffff;fill-opacity:1;fill-rule:evenodd;stroke:none"
       d="m 19.14,225.08 c 0,22.59 18.312,40.9 40.901,40.9 H 223.64 c 22.59,0 40.9,-18.31 40.9,-40.9 V 61.481 c 0,-22.589 -18.31,-40.901 -40.9,-40.901 H 60.041 C 37.452,20.58 19.14,38.892 19.14,61.481 Z" /><path
       id="path4157"
       style="fill:none;stroke:#000000;stroke-width:9.23999977;stroke-linecap:butt;stroke-linejoin:miter;stroke-miterlimit:10;stroke-dasharray:none;stroke-opacity:1"
       d="m 19.14,225.08 c 0,22.59 18.312,40.9 40.901,40.9 H 223.64 c 22.59,0 40.9,-18.31 40.9,-40.9 V 61.481 c 0,-22.589 -18.31,-40.901 -40.9,-40.901 H 60.041 C 37.452,20.58 19.14,38.892 19.14,61.481 Z" /><g
       id="g4159"><g
         clip-path="url(#clipPath4165)"
         id="g4161"><path
           id="path4167"
           style="fill:#0070c0;fill-opacity:1;fill-rule:evenodd;stroke:none"
           d="m 72.541,221.75 c 7.078,7.34 18.771,7.56 26.115,0.48 L 222.16,103.19 c 7.35,-7.078 7.56,-18.77 0.48,-26.115 L 211,64.997 c -7.08,-7.344 -18.77,-7.56 -26.11,-0.481 L 61.381,183.55 c -7.345,7.08 -7.56,18.77 -0.481,26.12 z" /></g></g><g
       id="g4169"><g
         clip-path="url(#clipPath4175)"
         id="g4171"><path
           id="path4177"
           style="fill:#0070c0;fill-opacity:1;fill-rule:evenodd;stroke:none"
           d="m 72.541,64.997 c 7.079,-7.344 18.771,-7.56 26.115,-0.481 L 222.16,183.55 c 7.35,7.08 7.56,18.77 0.48,26.12 L 211,221.75 c -7.08,7.34 -18.77,7.56 -26.11,0.48 L 61.381,103.19 C 54.036,96.113 53.821,84.42 60.9,77.076 Z" /></g></g></g></svg>