<?xml version="1.0" encoding="UTF-8" standalone="no"?>
<svg
   xmlns:dc="http://purl.org/dc/elements/1.1/"
   xmlns:cc="http://creativecommons.org/ns#"
   xmlns:rdf="http://www.w3.org/1999/02/22-rdf-syntax-ns#"
   xmlns:svg="http://www.w3.org/2000/svg"
   xmlns="http://www.w3.org/2000/svg"
   viewBox="0 0 354.45001 354.45001"
   height="354.45001"
   width="354.45001"
   xml:space="preserve"
   version="1.1"
   id="svg3336"><metadata
     id="metadata3342"><rdf:RDF><cc:Work
         rdf:about=""><dc:format>image/svg+xml</dc:format><dc:type
           rdf:resource="http://purl.org/dc/dcmitype/StillImage" /><dc:title></dc:title></cc:Work></rdf:RDF></metadata><defs
     id="defs3340"><clipPath
       id="clipPath3350"
       clipPathUnits="userSpaceOnUse"><path
         style="clip-rule:evenodd"
         id="path3352"
         d="m 0,6.1035e-5 283.56,0 0,283.559998965 -283.56,0 L 0,6.1035e-5 Z" /></clipPath><clipPath
       id="clipPath3360"
       clipPathUnits="userSpaceOnUse"><path
         style="clip-rule:evenodd"
         id="path3362"
         d="M -3.815e-6,283.56 283.56,283.56 283.56,0 -7.629e-6,3.0518e-5" /></clipPath><clipPath
       id="clipPath3370"
       clipPathUnits="userSpaceOnUse"><path
         style="clip-rule:evenodd"
         id="path3372"
         d="M -3.815e-6,283.56 283.56,283.56 283.56,0 -7.629e-6,3.0518e-5" /></clipPath></defs><g
     transform="matrix(1.25,0,0,-1.25,0,354.45)"
     id="g3344"><g
       id="g3346"><g
         clip-path="url(#clipPath3350)"
         id="g3348"><path
           id="path3354"
           style="fill:#eaeced;fill-opacity:1;fill-rule:evenodd;stroke:none"
           d="m 0,3.0518e-5 283.56,0 0,283.559999482 -283.56,0 L 0,3.0518e-5 Z" /></g></g><g
       id="g3356"><g
         clip-path="url(#clipPath3360)"
         id="g3358"><path
           id="path3364"
           style="fill:#e20167;fill-opacity:1;fill-rule:evenodd;stroke:none"
           d="m 143.76,24.96 -101.4,56.37 0,122.58 101.4,56.37 101.4,-56.37 0,-122.58 -101.4,-56.37 z" /></g></g><g
       id="g3366"><g
         clip-path="url(#clipPath3370)"
         id="g3368"><path
           id="path3374"
           style="fill:none;stroke:#ffffff;stroke-width:6;stroke-linecap:butt;stroke-linejoin:miter;stroke-miterlimit:10;stroke-dasharray:none;stroke-opacity:1"
           d="m 143.76,24.96 -101.4,56.37 0,122.58 101.4,56.37 101.4,-56.37 0,-122.58 -101.4,-56.37 z" /></g></g></g></svg>