<?xml version="1.0" encoding="UTF-8" standalone="no"?>
<!-- Created with Inkscape (http://www.inkscape.org/) -->

<svg
   xmlns:dc="http://purl.org/dc/elements/1.1/"
   xmlns:cc="http://creativecommons.org/ns#"
   xmlns:rdf="http://www.w3.org/1999/02/22-rdf-syntax-ns#"
   xmlns:svg="http://www.w3.org/2000/svg"
   xmlns="http://www.w3.org/2000/svg"
   xmlns:xlink="http://www.w3.org/1999/xlink"
   xmlns:sodipodi="http://sodipodi.sourceforge.net/DTD/sodipodi-0.dtd"
   xmlns:inkscape="http://www.inkscape.org/namespaces/inkscape"
   version="1.1"
   id="svg4699"
   xml:space="preserve"
   width="378.07999"
   height="378.07999"
   viewBox="0 0 378.07999 378.07999"
   sodipodi:docname="qwixx_r4.svg"
   inkscape:version="0.92.2 (5c3e80d, 2017-08-06)"><metadata
     id="metadata4705"><rdf:RDF><cc:Work
         rdf:about=""><dc:format>image/svg+xml</dc:format><dc:type
           rdf:resource="http://purl.org/dc/dcmitype/StillImage" /><dc:title></dc:title></cc:Work></rdf:RDF></metadata><defs
     id="defs4703"><clipPath
       clipPathUnits="userSpaceOnUse"
       id="clipPath4715"><path
         d="M 0,6.1035e-5 H 283.56 V 283.56006 H 0 Z"
         id="path4713"
         inkscape:connector-curvature="0"
         style="clip-rule:evenodd" /></clipPath><clipPath
       clipPathUnits="userSpaceOnUse"
       id="clipPath4725"><path
         d="m 60.041,265.98 c -22.589,0 -40.901,-18.31 -40.901,-40.9 V 61.481 C 19.14,38.892 37.452,20.58 60.041,20.58 H 223.64 c 22.59,0 40.9,18.312 40.9,40.901 V 225.08 c 0,22.59 -18.31,40.9 -40.9,40.9 z M 8.451e-6,283.56 H 283.56 V 1.2207e-4 H 8.451e-6 Z"
         id="path4723"
         inkscape:connector-curvature="0"
         style="clip-rule:evenodd" /></clipPath><mask
       maskUnits="userSpaceOnUse"
       x="0"
       y="0"
       width="1"
       height="1"
       id="mask4729"><image
         sodipodi:absref="C:\Users\sever\Desktop\dice\all_img32.png"
         xlink:href="all_img32.png"
         id="image4731"
         preserveAspectRatio="none"
         style="image-rendering:optimizeSpeed"
         height="1"
         width="1" /></mask></defs><sodipodi:namedview
     pagecolor="#ffffff"
     bordercolor="#666666"
     borderopacity="1"
     objecttolerance="10"
     gridtolerance="10"
     guidetolerance="10"
     inkscape:pageopacity="0"
     inkscape:pageshadow="2"
     inkscape:window-width="640"
     inkscape:window-height="480"
     id="namedview4701"
     showgrid="false"
     inkscape:zoom="0.62420654"
     inkscape:cx="189.03999"
     inkscape:cy="189.03999"
     inkscape:window-x="0"
     inkscape:window-y="0"
     inkscape:window-maximized="0"
     inkscape:current-layer="g4707" /><g
     id="g4707"
     inkscape:groupmode="layer"
     inkscape:label="all"
     transform="matrix(1.3333333,0,0,-1.3333333,0,378.08)"><g
       id="g4709"><g
         id="g4711"
         clip-path="url(#clipPath4715)"><path
           d="M 0,3.0518e-5 H 283.56 V 283.56003 H 0 Z"
           style="fill:#eaeced;fill-opacity:1;fill-rule:evenodd;stroke:none"
           id="path4717"
           inkscape:connector-curvature="0" /></g></g><g
       id="g4719"><g
         id="g4721"
         clip-path="url(#clipPath4725)"><g
           id="g4727"
           transform="matrix(262.68,0,0,262.68,12.48,9.9604)"><image
             sodipodi:absref="C:\Users\sever\Desktop\dice\all_img33.png"
             xlink:href="all_img33.png"
             id="image4733"
             mask="url(#mask4729)"
             transform="matrix(1,0,0,-1,0,1)"
             preserveAspectRatio="none"
             style="image-rendering:optimizeSpeed"
             height="1"
             width="1" /></g></g></g><path
       d="m 19.14,225.08 c 0,22.59 18.312,40.9 40.901,40.9 H 223.64 c 22.59,0 40.9,-18.31 40.9,-40.9 V 61.481 c 0,-22.589 -18.31,-40.901 -40.9,-40.901 H 60.041 C 37.452,20.58 19.14,38.892 19.14,61.481 Z"
       style="fill:#ed117f;fill-opacity:1;fill-rule:evenodd;stroke:none"
       id="path4735"
       inkscape:connector-curvature="0" /><path
       d="m 19.14,225.08 c 0,22.59 18.312,40.9 40.901,40.9 H 223.64 c 22.59,0 40.9,-18.31 40.9,-40.9 V 61.481 c 0,-22.589 -18.31,-40.901 -40.9,-40.901 H 60.041 C 37.452,20.58 19.14,38.892 19.14,61.481 Z"
       style="fill:none;stroke:#b30d60;stroke-width:9.23999977;stroke-linecap:butt;stroke-linejoin:miter;stroke-miterlimit:10;stroke-dasharray:none;stroke-opacity:1"
       id="path4737"
       inkscape:connector-curvature="0" /><path
       d="m 45.72,215.34 c 0,14.55 11.793,26.34 26.34,26.34 14.547,0 26.34,-11.79 26.34,-26.34 C 98.4,200.79 86.607,189 72.06,189 57.513,189 45.72,200.79 45.72,215.34 Z"
       style="fill:#ffffff;fill-opacity:1;fill-rule:evenodd;stroke:none"
       id="path4739"
       inkscape:connector-curvature="0" /><path
       d="m 183.48,74.22 c 0,14.547 11.77,26.34 26.28,26.34 14.51,0 26.28,-11.793 26.28,-26.34 0,-14.547 -11.77,-26.34 -26.28,-26.34 -14.51,0 -26.28,11.793 -26.28,26.34 z"
       style="fill:#ffffff;fill-opacity:1;fill-rule:evenodd;stroke:none"
       id="path4741"
       inkscape:connector-curvature="0" /><path
       d="m 183.48,215.34 c 0,14.55 11.77,26.34 26.28,26.34 14.51,0 26.28,-11.79 26.28,-26.34 0,-14.55 -11.77,-26.34 -26.28,-26.34 -14.51,0 -26.28,11.79 -26.28,26.34 z"
       style="fill:#ffffff;fill-opacity:1;fill-rule:evenodd;stroke:none"
       id="path4743"
       inkscape:connector-curvature="0" /><path
       d="m 45.72,74.22 c 0,14.547 11.793,26.34 26.34,26.34 14.547,0 26.34,-11.793 26.34,-26.34 0,-14.547 -11.793,-26.34 -26.34,-26.34 -14.547,0 -26.34,11.793 -26.34,26.34 z"
       style="fill:#ffffff;fill-opacity:1;fill-rule:evenodd;stroke:none"
       id="path4745"
       inkscape:connector-curvature="0" /></g></svg>