<?xml version="1.0" encoding="UTF-8" standalone="no"?>
<svg
   xmlns:dc="http://purl.org/dc/elements/1.1/"
   xmlns:cc="http://creativecommons.org/ns#"
   xmlns:rdf="http://www.w3.org/1999/02/22-rdf-syntax-ns#"
   xmlns:svg="http://www.w3.org/2000/svg"
   xmlns="http://www.w3.org/2000/svg"
   xmlns:xlink="http://www.w3.org/1999/xlink"
   viewBox="0 0 378.07999 378.07999"
   height="378.07999"
   width="378.07999"
   xml:space="preserve"
   id="svg5745"
   version="1.1"><metadata
     id="metadata5751"><rdf:RDF><cc:Work
         rdf:about=""><dc:format>image/svg+xml</dc:format><dc:type
           rdf:resource="http://purl.org/dc/dcmitype/StillImage" /><dc:title></dc:title></cc:Work></rdf:RDF></metadata><defs
     id="defs5749"><clipPath
       id="clipPath5761"
       clipPathUnits="userSpaceOnUse"><path
         style="clip-rule:evenodd"
         id="path5759"
         d="M 0,6.1035e-5 H 283.56 V 283.56006 H 0 Z" /></clipPath><clipPath
       id="clipPath5771"
       clipPathUnits="userSpaceOnUse"><path
         style="clip-rule:evenodd"
         id="path5769"
         d="m 60.041,265.98 c -22.589,0 -40.901,-18.31 -40.901,-40.9 V 61.481 C 19.14,38.892 37.452,20.58 60.041,20.58 H 223.64 c 22.59,0 40.9,18.312 40.9,40.901 V 225.08 c 0,22.59 -18.31,40.9 -40.9,40.9 z M 8.451e-6,283.56 H 283.56 V 1.2207e-4 H 8.451e-6 Z" /></clipPath><mask
       id="mask5775"
       height="1"
       width="1"
       y="0"
       x="0"
       maskUnits="userSpaceOnUse"><image
         xlink:href="all_img76.png"
         width="1"
         height="1"
         style="image-rendering:optimizeSpeed"
         preserveAspectRatio="none"
         id="image5777" /></mask></defs><g
     transform="matrix(1.3333333,0,0,-1.3333333,0,378.08)"
     id="g5753"><g
       id="g5755"><g
         clip-path="url(#clipPath5761)"
         id="g5757"><path
           id="path5763"
           style="fill:#eaeced;fill-opacity:1;fill-rule:evenodd;stroke:none"
           d="M 0,3.0518e-5 H 283.56 V 283.56003 H 0 Z" /></g></g><g
       id="g5765"><g
         clip-path="url(#clipPath5771)"
         id="g5767"><g
           transform="matrix(262.68,0,0,262.68,12.48,9.9604)"
           id="g5773"><image
             xlink:href="all_img77.png"
             width="1"
             height="1"
             style="image-rendering:optimizeSpeed"
             preserveAspectRatio="none"
             transform="matrix(1,0,0,-1,0,1)"
             mask="url(#mask5775)"
             id="image5779" /></g></g></g><path
       id="path5781"
       style="fill:#ffffff;fill-opacity:1;fill-rule:evenodd;stroke:none"
       d="m 19.14,225.08 c 0,22.59 18.312,40.9 40.901,40.9 H 223.64 c 22.59,0 40.9,-18.31 40.9,-40.9 V 61.481 c 0,-22.589 -18.31,-40.901 -40.9,-40.901 H 60.041 C 37.452,20.58 19.14,38.892 19.14,61.481 Z" /><path
       id="path5783"
       style="fill:none;stroke:#000000;stroke-width:9.23999977;stroke-linecap:butt;stroke-linejoin:miter;stroke-miterlimit:10;stroke-dasharray:none;stroke-opacity:1"
       d="m 19.14,225.08 c 0,22.59 18.312,40.9 40.901,40.9 H 223.64 c 22.59,0 40.9,-18.31 40.9,-40.9 V 61.481 c 0,-22.589 -18.31,-40.901 -40.9,-40.901 H 60.041 C 37.452,20.58 19.14,38.892 19.14,61.481 Z" /><path
       id="path5785"
       style="fill:#000000;fill-opacity:1;fill-rule:evenodd;stroke:none"
       d="m 115.44,143.34 c 0,14.55 11.79,26.34 26.34,26.34 14.55,0 26.34,-11.79 26.34,-26.34 0,-14.55 -11.79,-26.34 -26.34,-26.34 -14.55,0 -26.34,11.79 -26.34,26.34 z" /></g></svg>