<?xml version="1.0" encoding="UTF-8" standalone="no"?>
<svg
   xmlns:dc="http://purl.org/dc/elements/1.1/"
   xmlns:cc="http://creativecommons.org/ns#"
   xmlns:rdf="http://www.w3.org/1999/02/22-rdf-syntax-ns#"
   xmlns:svg="http://www.w3.org/2000/svg"
   xmlns="http://www.w3.org/2000/svg"
   xmlns:xlink="http://www.w3.org/1999/xlink"
   viewBox="0 0 378.07999 378.07999"
   height="378.07999"
   width="378.07999"
   xml:space="preserve"
   id="svg5693"
   version="1.1"><metadata
     id="metadata5699"><rdf:RDF><cc:Work
         rdf:about=""><dc:format>image/svg+xml</dc:format><dc:type
           rdf:resource="http://purl.org/dc/dcmitype/StillImage" /><dc:title></dc:title></cc:Work></rdf:RDF></metadata><defs
     id="defs5697"><clipPath
       id="clipPath5709"
       clipPathUnits="userSpaceOnUse"><path
         style="clip-rule:evenodd"
         id="path5707"
         d="M 0,6.1035e-5 H 283.56 V 283.56006 H 0 Z" /></clipPath><clipPath
       id="clipPath5719"
       clipPathUnits="userSpaceOnUse"><path
         style="clip-rule:evenodd"
         id="path5717"
         d="m 60.041,265.98 c -22.589,0 -40.901,-18.31 -40.901,-40.9 V 61.481 C 19.14,38.892 37.452,20.58 60.041,20.58 H 223.64 c 22.59,0 40.9,18.312 40.9,40.901 V 225.08 c 0,22.59 -18.31,40.9 -40.9,40.9 z M 8.451e-6,283.56 H 283.56 V 1.2207e-4 H 8.451e-6 Z" /></clipPath><mask
       id="mask5723"
       height="1"
       width="1"
       y="0"
       x="0"
       maskUnits="userSpaceOnUse"><image
         xlink:href="all_img74.png"
         width="1"
         height="1"
         style="image-rendering:optimizeSpeed"
         preserveAspectRatio="none"
         id="image5725" /></mask></defs><g
     transform="matrix(1.3333333,0,0,-1.3333333,0,378.08)"
     id="g5701"><g
       id="g5703"><g
         clip-path="url(#clipPath5709)"
         id="g5705"><path
           id="path5711"
           style="fill:#eaeced;fill-opacity:1;fill-rule:evenodd;stroke:none"
           d="M 0,3.0518e-5 H 283.56 V 283.56003 H 0 Z" /></g></g><g
       id="g5713"><g
         clip-path="url(#clipPath5719)"
         id="g5715"><g
           transform="matrix(262.68,0,0,262.68,12.48,9.9604)"
           id="g5721"><image
             xlink:href="all_img75.png"
             width="1"
             height="1"
             style="image-rendering:optimizeSpeed"
             preserveAspectRatio="none"
             transform="matrix(1,0,0,-1,0,1)"
             mask="url(#mask5723)"
             id="image5727" /></g></g></g><path
       id="path5729"
       style="fill:#0070c0;fill-opacity:1;fill-rule:evenodd;stroke:none"
       d="m 19.14,225.08 c 0,22.59 18.312,40.9 40.901,40.9 H 223.64 c 22.59,0 40.9,-18.31 40.9,-40.9 V 61.481 c 0,-22.589 -18.31,-40.901 -40.9,-40.901 H 60.041 C 37.452,20.58 19.14,38.892 19.14,61.481 Z" /><path
       id="path5731"
       style="fill:none;stroke:#00467a;stroke-width:9.23999977;stroke-linecap:butt;stroke-linejoin:miter;stroke-miterlimit:10;stroke-dasharray:none;stroke-opacity:1"
       d="m 19.14,225.08 c 0,22.59 18.312,40.9 40.901,40.9 H 223.64 c 22.59,0 40.9,-18.31 40.9,-40.9 V 61.481 c 0,-22.589 -18.31,-40.901 -40.9,-40.901 H 60.041 C 37.452,20.58 19.14,38.892 19.14,61.481 Z" /><path
       id="path5733"
       style="fill:#ffffff;fill-opacity:1;fill-rule:evenodd;stroke:none"
       d="m 45.72,215.34 c 0,14.55 11.793,26.34 26.34,26.34 14.547,0 26.34,-11.79 26.34,-26.34 C 98.4,200.79 86.607,189 72.06,189 57.513,189 45.72,200.79 45.72,215.34 Z" /><path
       id="path5735"
       style="fill:#ffffff;fill-opacity:1;fill-rule:evenodd;stroke:none"
       d="m 183.48,74.22 c 0,14.547 11.77,26.34 26.28,26.34 14.51,0 26.28,-11.793 26.28,-26.34 0,-14.547 -11.77,-26.34 -26.28,-26.34 -14.51,0 -26.28,11.793 -26.28,26.34 z" /><path
       id="path5737"
       style="fill:#ffffff;fill-opacity:1;fill-rule:evenodd;stroke:none"
       d="m 183.48,215.34 c 0,14.55 11.77,26.34 26.28,26.34 14.51,0 26.28,-11.79 26.28,-26.34 0,-14.55 -11.77,-26.34 -26.28,-26.34 -14.51,0 -26.28,11.79 -26.28,26.34 z" /><path
       id="path5739"
       style="fill:#ffffff;fill-opacity:1;fill-rule:evenodd;stroke:none"
       d="m 45.72,74.22 c 0,14.547 11.793,26.34 26.34,26.34 14.547,0 26.34,-11.793 26.34,-26.34 0,-14.547 -11.793,-26.34 -26.34,-26.34 -14.547,0 -26.34,11.793 -26.34,26.34 z" /><path
       id="path5741"
       style="fill:#ffffff;fill-opacity:1;fill-rule:evenodd;stroke:none"
       d="m 45.72,144.78 c 0,14.55 11.793,26.34 26.34,26.34 14.547,0 26.34,-11.79 26.34,-26.34 0,-14.55 -11.793,-26.34 -26.34,-26.34 -14.547,0 -26.34,11.79 -26.34,26.34 z" /><path
       id="path5743"
       style="fill:#ffffff;fill-opacity:1;fill-rule:evenodd;stroke:none"
       d="m 183.48,144.78 c 0,14.55 11.77,26.34 26.28,26.34 14.51,0 26.28,-11.79 26.28,-26.34 0,-14.55 -11.77,-26.34 -26.28,-26.34 -14.51,0 -26.28,11.79 -26.28,26.34 z" /></g></svg>